<?xml version="1.0" encoding="UTF-8"?>
<svg id="model_2" data-name="model 2" xmlns="http://www.w3.org/2000/svg" viewBox="0 0 563.74 494.05">
  <path d="M281.87,117.46v62.52L125.23,84.56V234.15c-24.14-2.76-47.38-3.77-67.11-3.95V25.09c0-19.57,21.45-31.59,38.15-21.36l185.6,113.73Z"/>
  <path d="M281.87,312.92v179.66c0,.81-.66,1.47-1.48,1.47h-57.74v-131.89c-35.05-66.02-155.75-51.44-155.75-51.44v183.33H1.48c-.82,0-1.48-.66-1.48-1.47v-226.14c0-13.85,10.97-25.21,24.8-25.7,58.97-2.12,206.25,.17,256.8,71.31,.17,.25,.27,.56,.27,.87Z"/>
  <path d="M281.87,312.92v179.66c0,.81,.66,1.47,1.48,1.47h57.74s0-131.89,0-131.89c35.05-66.02,155.75-51.44,155.75-51.44v183.33s65.42,0,65.42,0c.82,0,1.48-.66,1.48-1.47v-226.14c0-13.85-10.97-25.21-24.8-25.7-58.97-2.12-206.25,.17-256.8,71.31-.17,.25-.27,.56-.27,.87Z"/>
  <path d="M281.87,117.46v62.52s156.64-95.42,156.64-95.42V234.15c24.14-2.76,47.38-3.77,67.11-3.95V25.09c0-19.57-21.45-31.59-38.15-21.36l-185.6,113.73Z"/>
</svg>